<mxfile host="app.diagrams.net" modified="2023-10-19T14:27:34.284Z" agent="Mozilla/5.0 (Windows NT 10.0; Win64; x64) AppleWebKit/537.36 (KHTML, like Gecko) Chrome/118.0.0.0 Safari/537.36 Edg/118.0.2088.46" version="22.0.5" etag="yiB1EvSEU1Zz_J1MlDVr" type="github">
  <diagram name="第 1 页" id="iO63UsN_lws2ZYGSwzSD">
    <mxGraphModel>
      <root>
        <mxCell id="0" />
        <mxCell id="1" parent="0" />
      </root>
    </mxGraphModel>
  </diagram>
</mxfile>
